<svg xmlns="http://www.w3.org/2000/svg" width="1600" height="900" viewBox="0 0 1600 900">
  <defs>
    <linearGradient id="g" x1="0" y1="0" x2="1" y2="1">
      <stop offset="0" stop-color="#4F7DFF" stop-opacity="0.9"/>
      <stop offset="1" stop-color="#39D0FF" stop-opacity="0.7"/>
    </linearGradient>
    <filter id="blur" x="-20%" y="-20%" width="140%" height="140%">
      <feGaussianBlur stdDeviation="1.2"/>
    </filter>
  </defs>

  <rect width="1600" height="900" fill="#070A12"/>
  <g stroke="url(#g)" stroke-opacity="0.35" stroke-width="2" filter="url(#blur)">
    <path d="M120 120 L420 220 L680 160 L980 260 L1280 180 L1480 320"/>
    <path d="M200 780 L420 520 L720 620 L980 500 L1220 640 L1460 540"/>
    <path d="M260 300 L520 420 L780 360 L1040 420 L1320 360"/>
    <path d="M260 300 L300 520 L520 420 L600 640 L780 360 L900 640 L1040 420"/>
    <path d="M420 220 L360 480 L680 160 L720 420 L980 260 L980 500 L1280 180 L1220 640"/>
  </g>

  <g fill="url(#g)" fill-opacity="0.55">
    <circle cx="120" cy="120" r="6"/>
    <circle cx="420" cy="220" r="7"/>
    <circle cx="680" cy="160" r="6"/>
    <circle cx="980" cy="260" r="7"/>
    <circle cx="1280" cy="180" r="6"/>
    <circle cx="1480" cy="320" r="6"/>

    <circle cx="200" cy="780" r="6"/>
    <circle cx="420" cy="520" r="7"/>
    <circle cx="720" cy="620" r="6"/>
    <circle cx="980" cy="500" r="7"/>
    <circle cx="1220" cy="640" r="6"/>
    <circle cx="1460" cy="540" r="6"/>

    <circle cx="260" cy="300" r="6"/>
    <circle cx="520" cy="420" r="7"/>
    <circle cx="780" cy="360" r="6"/>
    <circle cx="1040" cy="420" r="7"/>
    <circle cx="1320" cy="360" r="6"/>
  </g>
</svg>